<?xml version="1.0" encoding="UTF-8" standalone="no"?>
<!DOCTYPE svg PUBLIC "-//W3C//DTD SVG 1.0//EN"
 "http://www.w3.org/TR/2001/REC-SVG-20010904/DTD/svg10.dtd" [
 <!ATTLIST svg xmlns:xlink CDATA #FIXED "http://www.w3.org/1999/xlink">
]>
<!-- Generated by Graphviz version 2.16 (Fri Feb  8 12:52:03 UTC 2008)
     For user: (greg) Greg,,, -->
<!-- Title: topologies Pages: 1 -->
<svg width="260pt" height="404pt"
 viewBox="0.00 0.00 260.00 404.00" xmlns="http://www.w3.org/2000/svg" xmlns:xlink="http://www.w3.org/1999/xlink">
<g id="graph0" class="graph" transform="scale(1 1) rotate(0) translate(4 400)">
<title>topologies</title>
<polygon style="fill:white;stroke:white;" points="-4,4 -4,-400 256,-400 256,4 -4,4"/>
<!-- norm -->
<g id="node1" class="node"><title>norm</title>
<ellipse style="fill:none;stroke:black;" cx="107" cy="-378" rx="27.1955" ry="18"/>
<text text-anchor="middle" x="107" y="-373.65" style="font-family:Times New Roman;font-size:14.00;">norm</text>
</g>
<!-- weak Banach -->
<g id="node3" class="node"><title>weak Banach</title>
<ellipse style="fill:none;stroke:black;" cx="50" cy="-234" rx="49.8241" ry="18"/>
<text text-anchor="middle" x="50" y="-229.65" style="font-family:Times New Roman;font-size:14.00;">weak Banach</text>
</g>
<!-- norm&#45;&gt;weak Banach -->
<g id="edge2" class="edge"><title>norm&#45;&gt;weak Banach</title>
<path style="fill:none;stroke:black;" d="M100,-360C90,-336 72,-291 61,-262"/>
<polygon style="fill:black;stroke:black;" points="63.9636,-259.985 57,-252 57.4643,-262.585 63.9636,-259.985"/>
</g>
<!-- Arens&#45;Mackey -->
<g id="node5" class="node"><title>Arens&#45;Mackey</title>
<ellipse style="fill:none;stroke:black;" cx="157" cy="-306" rx="53.9491" ry="18"/>
<text text-anchor="middle" x="157" y="-301.65" style="font-family:Times New Roman;font-size:14.00;">Arens&#45;Mackey</text>
</g>
<!-- norm&#45;&gt;Arens&#45;Mackey -->
<g id="edge4" class="edge"><title>norm&#45;&gt;Arens&#45;Mackey</title>
<path style="fill:none;stroke:black;" d="M118,-362C124,-353 132,-342 139,-332"/>
<polygon style="fill:black;stroke:black;" points="141.8,-334.1 145,-324 136.2,-329.9 141.8,-334.1"/>
</g>
<!-- ultraweak -->
<g id="node7" class="node"><title>ultraweak</title>
<ellipse style="fill:none;stroke:black;" cx="76" cy="-90" rx="38.8263" ry="18"/>
<text text-anchor="middle" x="76" y="-85.65" style="font-family:Times New Roman;font-size:14.00;">ultraweak</text>
</g>
<!-- weak Banach&#45;&gt;ultraweak -->
<g id="edge6" class="edge"><title>weak Banach&#45;&gt;ultraweak</title>
<path style="fill:none;stroke:black;" d="M53,-216C57,-191 66,-147 71,-118"/>
<polygon style="fill:black;stroke:black;" points="74.4708,-118.492 73,-108 67.6067,-117.119 74.4708,-118.492"/>
</g>
<!-- ultrastrong&#45;* -->
<g id="node9" class="node"><title>ultrastrong&#45;*</title>
<ellipse style="fill:none;stroke:black;" cx="166" cy="-234" rx="47.8259" ry="18"/>
<text text-anchor="middle" x="166" y="-229.65" style="font-family:Times New Roman;font-size:14.00;">ultrastrong&#45;*</text>
</g>
<!-- Arens&#45;Mackey&#45;&gt;ultrastrong&#45;* -->
<g id="edge8" class="edge"><title>Arens&#45;Mackey&#45;&gt;ultrastrong&#45;*</title>
<path style="fill:none;stroke:black;" d="M159,-288C160,-280 161,-271 162,-262"/>
<polygon style="fill:black;stroke:black;" points="165.471,-262.492 164,-252 158.607,-261.119 165.471,-262.492"/>
</g>
<!-- weak operator -->
<g id="node18" class="node"><title>weak operator</title>
<ellipse style="fill:none;stroke:black;" cx="132" cy="-18" rx="52.8241" ry="18"/>
<text text-anchor="middle" x="132" y="-13.65" style="font-family:Times New Roman;font-size:14.00;">weak operator</text>
</g>
<!-- ultraweak&#45;&gt;weak operator -->
<g id="edge18" class="edge"><title>ultraweak&#45;&gt;weak operator</title>
<path style="fill:none;stroke:black;" d="M89,-73C96,-65 105,-54 112,-44"/>
<polygon style="fill:black;stroke:black;" points="114.8,-46.1 118,-36 109.2,-41.9 114.8,-46.1"/>
</g>
<!-- ultrastrong -->
<g id="node11" class="node"><title>ultrastrong</title>
<ellipse style="fill:none;stroke:black;" cx="120" cy="-162" rx="42.1968" ry="18"/>
<text text-anchor="middle" x="120" y="-157.65" style="font-family:Times New Roman;font-size:14.00;">ultrastrong</text>
</g>
<!-- ultrastrong&#45;*&#45;&gt;ultrastrong -->
<g id="edge10" class="edge"><title>ultrastrong&#45;*&#45;&gt;ultrastrong</title>
<path style="fill:none;stroke:black;" d="M155,-216C150,-208 143,-198 137,-188"/>
<polygon style="fill:black;stroke:black;" points="139.8,-185.9 131,-180 134.2,-190.1 139.8,-185.9"/>
</g>
<!-- strong&#45;* -->
<g id="node13" class="node"><title>strong&#45;*</title>
<ellipse style="fill:none;stroke:black;" cx="216" cy="-162" rx="35.8265" ry="18"/>
<text text-anchor="middle" x="216" y="-157.65" style="font-family:Times New Roman;font-size:14.00;">strong&#45;*</text>
</g>
<!-- ultrastrong&#45;*&#45;&gt;strong&#45;* -->
<g id="edge12" class="edge"><title>ultrastrong&#45;*&#45;&gt;strong&#45;*</title>
<path style="fill:none;stroke:black;" d="M178,-217C184,-208 192,-197 198,-187"/>
<polygon style="fill:black;stroke:black;" points="200.8,-189.1 204,-179 195.2,-184.9 200.8,-189.1"/>
</g>
<!-- ultrastrong&#45;&gt;ultraweak -->
<g id="edge14" class="edge"><title>ultrastrong&#45;&gt;ultraweak</title>
<path style="fill:none;stroke:black;" d="M109,-145C104,-136 97,-126 92,-116"/>
<polygon style="fill:black;stroke:black;" points="94.916,-114.042 87,-107 88.7969,-117.441 94.916,-114.042"/>
</g>
<!-- strong operator -->
<g id="node16" class="node"><title>strong operator</title>
<ellipse style="fill:none;stroke:black;" cx="189" cy="-90" rx="56.1991" ry="18"/>
<text text-anchor="middle" x="189" y="-85.65" style="font-family:Times New Roman;font-size:14.00;">strong operator</text>
</g>
<!-- ultrastrong&#45;&gt;strong operator -->
<g id="edge16" class="edge"><title>ultrastrong&#45;&gt;strong operator</title>
<path style="fill:none;stroke:black;" d="M136,-145C145,-136 155,-125 165,-115"/>
<polygon style="fill:black;stroke:black;" points="167.404,-117.546 172,-108 162.454,-112.596 167.404,-117.546"/>
</g>
<!-- strong&#45;*&#45;&gt;strong operator -->
<g id="edge20" class="edge"><title>strong&#45;*&#45;&gt;strong operator</title>
<path style="fill:none;stroke:black;" d="M209,-144C206,-136 203,-126 199,-118"/>
<polygon style="fill:black;stroke:black;" points="202.226,-116.573 196,-108 195.521,-118.584 202.226,-116.573"/>
</g>
<!-- strong operator&#45;&gt;weak operator -->
<g id="edge22" class="edge"><title>strong operator&#45;&gt;weak operator</title>
<path style="fill:none;stroke:black;" d="M175,-72C168,-63 160,-53 152,-44"/>
<polygon style="fill:black;stroke:black;" points="154.8,-41.9 146,-36 149.2,-46.1 154.8,-41.9"/>
</g>
</g>
</svg>
